<svg xmlns="http://www.w3.org/2000/svg" version="1.1" xmlns:xlink="http://www.w3.org/1999/xlink" xmlns:svgjs="http://svgjs.dev/svgjs" viewBox="0 0 800 800"><defs><linearGradient x1="50%" y1="0%" x2="50%" y2="100%" id="ccchaos-grad"><stop stop-color="hsl(206, 75%, 49%)" stop-opacity="1" offset="0%"></stop><stop stop-color="hsl(331, 90%, 56%)" stop-opacity="1" offset="100%"></stop></linearGradient></defs><g stroke-width="2" stroke="url(#ccchaos-grad)" fill="none" stroke-linecap="round"><path d="M114.82 108.95Q123.81 111.96 132.8 115.06 141.8 118.12 150.79 120.97 159.78 123.5 168.77 125.58 177.77 127.11 186.76 128.02 195.75 128.26 204.75 127.83 213.74 126.75 222.73 125.06 231.72 122.85 240.72 120.22 249.71 117.29 258.7 114.21 267.7 111.12 276.69 108.16 285.68 105.48 294.67 103.2 303.67 101.44 312.66 100.27 321.65 99.75 330.65 99.9 339.64 100.72 348.63 102.17 357.62 104.17 366.62 106.65 375.61 109.47 384.6 112.5 393.6 115.61 402.59 118.64 411.58 121.45 420.57 123.9 429.57 125.89 438.56 127.32 447.55 128.11 456.55 128.24 465.54 127.69 474.53 126.49 483.53 124.7 492.52 122.41 501.51 119.72 510.5 116.75 519.5 113.66 528.49 110.58 537.48 107.66 546.48 105.05 555.47 102.85 564.46 101.19 573.45 100.13 582.45 99.72 591.44 100 600.43 100.93 609.43 102.48 618.42 104.58 627.41 107.12 636.4 109.99 645.4 113.05 654.39 116.15 663.38 119.15 672.38 121.91 681.37 124.29 690.36 126.19 699.72 135.41 708.19 144.63 715.22 153.86 720.36 163.08 723.27 172.31 723.76 181.53 721.8 190.75 717.52 199.98 711.19 209.2 703.23 218.42 694.15 227.65 684.55 236.87 675.03 246.1 666.23 255.32 658.71 264.54 652.96 273.77 649.35 282.99 648.12 292.21 649.35 301.44 652.95 310.66 658.69 319.89 666.21 329.11 675 338.33 684.52 347.56 694.12 356.78 703.2 366 711.17 375.23 717.5 384.45 721.79 393.68 723.75 402.9 723.27 412.12 720.37 421.35 715.24 430.57 708.22 439.79 699.75 449.02 690.39 458.24 680.75 467.47 671.44 476.69 663.08 485.91 656.21 495.14 651.27 504.36 648.58 513.58 648.31 522.81 650.49 532.03 654.98 541.26 661.47 550.48 669.55 559.7 678.71 568.93 688.33 578.15 697.8 587.37 706.51 596.6 713.88 605.82 719.45 615.05 722.85 624.27 723.86 633.49 722.41 642.72 718.6 651.94 712.68 661.16 705.02 670.39 696.13 679.61 686.59 688.84 677 698.06 659.78 709.52 642.95 705.8 634.34 698.91 625.73 691.4 617.12 683.63 608.51 675.98 599.9 668.8 591.29 662.43 582.68 657.18 574.07 653.3 556.85 651.12 539.63 653.94 531.02 658.11 522.41 663.6 513.8 670.15 505.19 677.45 496.58 685.15 487.97 692.9 479.36 700.31 470.75 707.05 462.14 712.8 453.53 717.27 436.31 720.79 419.09 719.33 410.48 715.77 401.87 710.79 393.26 704.65 384.65 697.62 376.04 690.04 367.43 682.26 358.82 674.67 350.21 667.61 341.6 661.42 332.99 656.39 315.77 651.55 298.55 651.64 289.94 654.57 281.33 658.99 272.72 664.69 264.11 671.39 255.5 678.79 246.89 686.53 238.28 694.24 229.67 701.56 221.06 708.15 212.45 713.68 203.84 717.91 195.23 720.63 178.01 720.26 160.79 714.99 152.18 709.79 143.57 703.46 134.96 696.31 126.35 688.67 117.74 680.9 109.13 673.37 110.61 664.55 112.3 655.73 114.11 646.92 115.9 638.1 117.58 629.28 119.02 620.46 120.13 611.64 120.85 602.82 121.12 594 120.93 585.18 120.29 576.36 119.24 567.54 117.86 558.72 116.22 549.91 114.43 541.09 112.62 532.27 110.9 523.45 109.38 514.63 108.16 505.81 107.31 496.99 106.9 488.17 106.95 479.35 107.46 470.53 108.39 461.71 109.68 452.9 111.26 444.08 113.01 435.26 114.82 426.44 116.58 417.62 118.18 408.8 119.5 399.98 120.46 391.16 121.01 382.34 121.1 373.52 120.73 364.71 119.92 355.89 118.73 347.07 117.23 338.25 115.52 329.43 113.72 320.61 111.93 311.79 110.27 302.97 108.86 294.15 107.78 285.33 107.1 276.51 106.87 267.7 107.1 258.88 107.78 250.06 108.86 241.24 110.28 232.42 111.93 223.6 113.72 214.78 115.53 205.96 117.24 197.14 118.74 188.32 119.93 179.5 120.73 170.69 121.1 161.87 121.01 153.05 120.46 144.23 119.5 135.41 118.17 126.59 116.58 117.77 114.82 108.95" stroke-dasharray="4 7" transform="rotate(0, 400, 400)" opacity="0.13"></path><path d="M128.21 123.63Q145.78 129.7 163.36 134.96 180.93 138.49 198.5 139.68 216.07 138.33 233.65 134.67 251.22 129.33 268.79 123.25 286.36 117.46 303.94 112.98 321.51 110.58 339.08 110.68 356.65 113.25 374.23 117.86 391.8 123.71 409.37 129.77 426.94 135.01 444.52 138.52 462.09 139.68 479.66 138.3 497.23 134.62 514.81 129.27 532.38 123.18 549.95 117.4 567.52 112.94 585.1 110.57 602.67 110.69 620.24 113.3 637.81 117.93 655.39 123.78 672.96 129.84 690.53 135.07 704.68 152.69 711.81 170.32 710.24 187.95 700.34 205.58 684.45 223.21 666.33 240.84 650.25 258.47 640.03 276.1 638.06 293.73 644.83 311.36 658.73 328.99 676.47 346.62 693.86 364.25 706.79 381.88 712.21 399.51 708.84 417.14 697.46 434.76 680.77 452.39 662.72 470.02 647.57 487.65 638.9 505.28 638.76 522.91 647.19 540.54 662.18 558.17 680.21 575.8 697 593.43 708.59 611.06 712.24 628.69 707.09 646.32 694.35 663.95 677.04 681.58 659.25 699.21 642.45 686.65 625.65 672.07 608.85 658 592.06 646.87 575.26 640.61 558.46 640.31 541.66 646.01 524.87 656.74 508.07 670.62 491.27 685.26 474.48 698.13 457.68 706.98 440.88 710.3 424.08 707.51 407.29 699.08 390.49 686.48 373.69 671.9 356.9 657.85 340.1 646.77 323.3 640.57 306.5 640.34 289.71 646.11 272.91 656.89 256.11 670.79 239.31 685.43 222.52 698.26 205.72 707.06 188.92 710.3 172.13 707.44 155.33 698.95 138.53 686.32 121.73 671.72 125.42 654.59 129 637.47 131.64 620.34 132.71 603.21 131.95 586.08 129.55 568.96 126.07 551.83 122.34 534.7 119.24 517.57 117.49 500.44 117.52 483.32 119.32 466.19 122.45 449.06 126.19 431.93 129.65 414.81 132 397.68 132.7 380.55 131.58 363.42 128.9 346.29 125.3 329.17 121.63 312.04 118.75 294.91 117.35 277.78 117.75 260.66 119.87 243.53 123.2 226.4 126.95 209.27 130.24 192.14 132.29 175.02 132.62 157.89 131.14 140.76 128.21 123.63" stroke-dasharray="5 2" transform="rotate(4.04, 400, 400)" opacity="0.22"></path><path d="M141.62 138.63Q158.72 144.24 175.82 148.54 192.93 150.83 210.03 150.75 227.13 148.31 244.23 143.91 261.33 138.24 278.43 132.21 295.53 126.79 312.63 122.84 329.73 120.99 346.83 121.54 363.93 124.4 381.03 129.11 398.13 134.92 415.23 140.91 432.34 146.11 449.44 149.69 466.54 151.09 483.64 150.07 500.74 146.81 517.84 141.81 534.94 135.89 552.04 129.99 569.14 125.04 586.24 121.85 603.34 120.91 620.44 122.39 637.54 126.04 654.64 131.28 671.75 137.27 688.85 143.06 698.39 159.85 700.44 176.64 694.53 193.43 681.96 210.22 665.47 227.01 648.66 243.8 635.2 260.59 628.01 277.38 628.68 294.17 637.05 310.96 651.3 327.75 668.32 344.54 684.39 361.33 696.02 378.12 700.66 394.91 697.3 411.7 686.67 428.49 671.1 445.28 653.98 462.07 639.04 478.86 629.55 495.65 627.57 512.44 633.54 529.23 646.15 546.02 662.65 562.8 679.45 579.59 692.88 596.38 700 613.17 699.27 629.96 690.85 646.75 676.56 663.54 659.53 680.33 643.14 666.95 626.75 653.09 610.36 640.98 593.97 632.54 577.57 629.13 561.18 631.29 544.79 638.68 528.4 650.11 512 663.76 495.61 677.45 479.22 688.98 462.83 696.53 446.44 698.88 430.04 695.65 413.65 687.37 397.26 675.35 380.87 661.52 364.48 648.08 348.08 637.19 331.69 630.58 315.3 629.31 298.91 633.58 282.51 642.71 266.12 655.25 249.73 669.18 233.34 682.28 216.95 692.46 200.55 698.1 184.16 698.28 167.77 692.99 151.38 683.06 134.98 670.09 138.84 653.48 142.08 636.87 143.99 620.26 144.15 603.66 142.54 587.05 139.5 570.44 135.69 553.83 131.95 537.22 129.1 520.62 127.74 504.01 128.19 487.4 130.34 470.79 133.73 454.18 137.6 437.58 141.13 420.97 143.54 404.36 144.3 387.75 143.25 371.14 140.61 354.54 136.97 337.93 133.12 321.32 129.89 304.71 128 288.1 127.85 271.5 129.47 254.89 132.52 238.28 136.33 221.67 140.06 205.06 142.91 188.46 144.25 171.85 143.79 155.24 141.62 138.63" stroke-dasharray="5 11" transform="rotate(8.08, 400, 400)" opacity="0.98"></path><path d="M154.75 153.66Q171.31 158.44 187.86 161.54 204.41 162.5 220.97 161.19 237.52 157.79 254.07 152.8 270.63 146.97 287.18 141.13 303.73 136.16 320.29 132.78 336.84 131.49 353.39 132.47 369.95 135.59 386.5 140.39 403.05 146.15 419.61 152.04 436.16 157.19 452.71 160.84 469.27 162.45 485.82 161.8 502.37 158.97 518.93 154.38 535.48 148.71 552.03 142.78 568.58 137.47 585.14 133.57 601.69 131.63 618.24 131.95 634.8 134.48 651.35 138.85 667.9 144.42 684.46 150.36 689.03 166.3 686.37 182.25 677.01 198.19 662.83 214.13 646.68 230.07 631.8 246.01 621.17 261.95 616.92 277.89 619.92 293.83 629.55 309.78 643.88 325.72 660.05 341.66 674.8 357.6 685.17 373.54 689.09 389.48 685.76 405.42 675.86 421.36 661.37 437.31 645.2 453.25 630.6 469.19 620.48 485.13 616.9 501.07 620.55 517.01 630.72 532.95 645.35 548.89 661.52 564.84 675.98 580.78 685.83 596.72 689.08 612.66 685.1 628.6 674.67 644.54 659.9 660.48 643.92 647.27 627.95 634.9 611.97 625.18 596 619.55 580.02 618.84 564.05 623.14 548.07 631.83 532.1 643.63 516.12 656.8 500.15 669.42 484.17 679.62 468.2 685.91 452.22 687.37 436.25 683.77 420.27 675.66 404.3 664.21 388.32 651.12 372.35 638.3 356.37 627.65 340.4 620.71 324.42 618.52 308.45 621.39 292.47 628.91 276.5 639.96 260.52 652.93 244.55 665.91 228.57 676.99 212.6 684.55 196.62 687.47 180.65 685.32 164.67 678.43 148.7 667.8 152.34 651.74 154.91 635.67 155.89 619.6 155.09 603.53 152.66 587.47 149.1 571.4 145.11 555.33 141.5 539.27 139 523.2 138.09 507.13 138.98 491.06 141.47 475 145.07 458.93 149.06 442.86 152.63 426.8 155.07 410.73 155.89 394.66 154.93 378.59 152.37 362.53 148.73 346.46 144.75 330.39 141.21 314.33 138.84 298.26 138.1 282.19 139.15 266.12 141.77 250.06 145.44 233.99 149.42 217.92 152.92 201.86 155.22 185.79 155.88 169.72 154.75 153.66" stroke-dasharray="4 5" transform="rotate(12.12, 400, 400)" opacity="0.62"></path><path d="M167.3 168.4Q183.22 172.05 199.15 173.8 215.07 173.43 230.99 170.98 246.91 166.79 262.83 161.41 278.76 155.57 294.68 150.06 310.6 145.61 326.52 142.84 342.44 142.1 358.37 143.5 374.29 146.85 390.21 151.7 406.13 157.4 422.05 163.18 437.98 168.26 453.9 171.96 469.82 173.78 485.74 173.48 501.67 171.09 517.59 166.95 533.51 161.59 549.43 155.76 565.35 150.22 581.28 145.73 597.2 142.89 613.12 142.09 629.04 143.42 644.96 146.71 660.89 151.53 676.81 157.21 676.53 172.31 669.91 187.4 658.15 202.5 643.43 217.6 628.44 232.69 615.94 247.79 608.23 262.89 606.73 277.98 611.72 293.08 622.27 308.18 636.45 323.27 651.64 338.37 665.07 353.47 674.25 368.57 677.5 383.66 674.23 398.76 665.02 413.86 651.59 428.95 636.39 444.05 622.22 459.15 611.68 474.24 606.73 489.34 608.25 504.44 615.98 519.54 628.49 534.63 643.49 549.73 658.21 564.83 669.95 579.92 676.55 595.02 676.8 610.12 670.65 625.21 659.23 640.31 643.71 628.15 628.19 617.86 612.67 610.81 597.15 607.96 581.63 609.68 566.11 615.76 550.59 625.36 535.07 637.21 519.55 649.7 504.03 661.15 488.51 670.02 472.99 675.12 457.47 675.77 441.95 671.87 426.43 663.95 410.91 653.08 395.39 640.71 379.88 628.52 364.36 618.14 348.84 610.97 333.32 607.98 317.8 609.56 302.28 615.5 286.76 625.01 271.24 636.81 255.72 649.3 240.2 660.81 224.68 669.79 209.16 675.03 193.64 675.82 178.12 672.06 162.6 664.26 165.65 648.76 167.3 633.27 167.23 617.77 165.47 602.28 162.33 586.78 158.39 571.29 154.39 555.79 151.04 540.29 148.97 524.8 148.57 509.3 149.89 493.81 152.71 478.31 156.5 462.82 160.56 447.32 164.15 431.83 166.61 416.33 167.49 400.83 166.62 385.34 164.16 369.84 160.57 354.35 156.51 338.85 152.72 323.36 149.9 307.86 148.57 292.37 148.97 276.87 151.03 261.37 154.37 245.88 158.38 230.38 162.31 214.89 165.46 199.39 167.23 183.9 167.3 168.4" stroke-dasharray="5 6" transform="rotate(16.16, 400, 400)" opacity="0.80"></path><path d="M179.01 182.57Q194.22 184.87 209.43 185.23 224.64 183.59 239.84 180.16 255.05 175.37 270.26 169.79 285.47 164.11 300.68 159.03 315.89 155.18 331.09 153.02 346.3 152.82 361.51 154.61 376.72 158.16 391.93 163.04 407.14 168.65 422.34 174.31 437.55 179.31 452.76 183.05 467.97 185.06 483.18 185.1 498.38 183.16 513.59 179.49 528.8 174.53 544.01 168.88 559.22 163.26 574.43 158.33 589.63 154.72 604.84 152.85 620.05 152.97 635.26 155.06 650.47 158.85 665.68 163.89 661.14 178.16 651.55 192.43 638.52 206.7 624.22 220.96 611.05 235.23 601.24 249.5 596.41 263.77 597.39 278.04 604 292.31 615.14 306.57 628.95 320.84 643.09 335.11 655.21 349.38 663.26 363.65 665.9 377.92 662.69 392.18 654.16 406.45 641.74 420.72 627.52 434.99 613.88 449.26 603.12 463.53 597.03 477.8 596.64 492.06 602.01 506.33 612.24 520.6 625.63 534.87 639.91 549.14 652.69 563.41 661.84 577.67 665.81 591.94 663.94 606.21 656.55 620.48 641.54 610.09 626.54 602.28 611.53 597.98 596.53 597.74 581.52 601.58 566.51 609.03 551.51 619.17 536.5 630.77 521.5 642.39 506.49 652.62 491.49 660.19 476.48 664.18 461.48 664.09 446.47 659.95 431.47 652.25 416.46 641.95 401.46 630.29 386.45 618.73 371.44 608.67 356.44 601.35 341.43 597.67 326.43 598.08 311.42 602.52 296.42 610.47 281.41 620.93 266.41 632.62 251.4 644.12 236.4 654.01 221.39 661.07 206.39 664.44 191.38 663.71 176.37 658.96 178.51 644.07 179.05 629.18 177.9 614.3 175.26 599.41 171.57 584.52 167.44 569.63 163.58 554.75 160.62 539.86 159.07 524.97 159.19 510.09 160.94 495.2 164.05 480.31 167.99 465.42 172.1 450.54 175.68 435.65 178.15 420.76 179.08 405.88 178.31 390.99 175.99 376.1 172.49 361.21 168.4 346.33 164.42 331.44 161.2 316.55 159.29 301.66 159.01 286.78 160.4 271.89 163.24 257 167.04 242.12 171.17 227.23 174.93 212.34 177.7 197.45 179.01 182.57" stroke-dasharray="7 0" transform="rotate(20.200000000000003, 400, 400)" opacity="0.53"></path><path d="M189.7 195.88Q204.12 196.74 218.54 195.74 232.96 192.98 247.38 188.77 261.8 183.59 276.23 178 290.65 172.64 305.07 168.1 319.49 164.88 333.91 163.35 348.33 163.67 362.76 165.81 377.18 169.53 391.6 174.42 406.02 179.93 420.44 185.44 434.86 190.35 449.29 194.11 463.71 196.29 478.13 196.66 492.55 195.17 506.97 191.99 521.39 187.47 535.82 182.12 550.24 176.54 564.66 171.33 579.08 167.1 593.5 164.3 607.92 163.25 622.35 164.06 640.05 175.43 631.91 197.66 618.68 211.13 605.65 224.59 594.81 238.06 587.8 251.52 585.7 264.99 588.82 278.45 596.69 291.92 608.12 305.38 621.35 318.84 634.38 332.31 645.21 345.77 652.21 359.24 654.29 372.7 651.15 386.17 643.26 399.63 631.83 413.1 618.6 426.56 605.57 440.03 594.75 453.49 587.77 466.96 585.7 480.42 588.86 493.89 596.76 507.35 608.2 520.82 621.44 534.28 634.46 547.75 645.27 561.21 652.24 574.68 645.49 590.83 622.28 588.37 607.86 586.75 593.44 588.84 579.02 594.39 564.6 602.8 550.18 613.13 535.76 624.22 521.34 634.84 506.92 643.8 492.49 650.12 478.07 653.07 463.65 652.34 449.23 648.01 434.81 640.56 420.39 630.81 405.97 619.86 391.55 608.92 377.13 599.22 362.71 591.84 348.29 587.59 333.87 586.95 319.45 589.99 305.03 596.38 290.61 605.39 276.19 616.04 261.77 627.12 247.35 637.42 232.93 645.77 218.51 651.25 204.09 653.24 189.67 651.53 190.66 637.3 190.02 623.06 187.86 608.82 184.49 594.58 180.44 580.34 176.33 566.1 172.77 551.86 170.31 537.62 169.33 523.38 169.97 509.14 172.14 494.9 175.51 480.67 179.56 466.43 183.68 452.19 187.23 437.95 189.68 423.71 190.66 409.47 190.01 395.23 187.84 380.99 184.47 366.75 180.42 352.51 176.3 338.27 172.75 324.04 170.3 309.8 169.33 295.56 169.98 281.32 172.16 267.08 175.53 252.84 179.59 238.6 183.7 224.36 187.25 210.12 189.7 195.88" stroke-dasharray="4 1" transform="rotate(24.24, 400, 400)" opacity="0.14"></path><path d="M199.28 208.13Q212.86 207.56 226.44 205.32 240.01 201.64 253.59 196.88 267.17 191.54 280.75 186.14 294.33 181.23 307.91 177.3 321.49 174.75 335.07 173.83 348.64 174.65 362.22 177.1 375.8 180.96 389.38 185.83 402.96 191.21 416.54 196.58 430.12 201.38 443.7 205.14 457.27 207.47 470.85 208.15 484.43 207.1 498.01 204.42 511.59 200.4 525.17 195.43 538.75 190.02 552.33 184.7 565.9 180.01 579.48 176.43 593.06 174.32 606.64 173.89 621.99 182.96 611.68 203.44 599.23 216.13 588.13 228.82 579.9 241.52 575.68 254.21 576.04 266.9 580.94 279.6 589.71 292.29 601.12 304.98 613.63 317.68 625.49 330.37 635.08 343.06 641.09 355.76 642.67 368.45 639.62 381.14 632.35 393.84 621.86 406.53 609.61 419.22 597.27 431.91 586.54 444.61 578.91 457.3 575.42 469.99 576.55 482.69 582.15 495.38 591.44 508.07 603.15 520.77 615.67 533.46 627.27 546.15 636.35 558.85 635.19 575.13 614.96 576.26 601.2 577.09 587.44 581.14 573.68 587.98 559.92 596.95 546.16 607.12 532.41 617.48 518.65 626.99 504.89 634.69 491.13 639.8 477.37 641.81 463.61 640.52 449.85 636.05 436.09 628.87 422.33 619.68 408.57 609.41 394.81 599.11 381.05 589.8 367.29 582.42 353.53 577.71 339.77 576.16 326.01 577.91 312.25 582.79 298.49 590.3 284.74 599.7 270.98 610.03 257.22 620.26 243.46 629.36 229.7 636.4 215.94 640.69 202.18 641.78 201.91 628.23 200.13 614.68 197.1 601.13 193.22 587.58 189.04 574.03 185.13 560.48 182.03 546.92 180.16 533.37 179.78 519.82 180.95 506.27 183.5 492.72 187.08 479.17 191.2 465.61 195.29 452.06 198.79 438.51 201.22 424.96 202.24 411.41 201.71 397.86 199.71 384.3 196.5 370.75 192.54 357.2 188.37 343.65 184.55 330.1 181.63 316.55 179.99 302.99 179.87 289.44 181.28 275.89 184.03 262.34 187.73 248.79 191.89 235.24 195.92 221.68 199.28 208.13" stroke-dasharray="11 5" transform="rotate(28.28, 400, 400)" opacity="0.73"></path><path d="M207.8 219.17Q220.5 217.28 233.2 214.01 245.9 209.65 258.6 204.6 271.31 199.32 284.01 194.28 296.71 189.93 309.41 186.68 322.11 184.81 334.81 184.49 347.51 185.76 360.21 188.49 372.91 192.45 385.61 197.27 398.31 202.51 411.01 207.71 423.71 212.39 436.41 216.14 449.12 218.6 461.82 219.56 474.52 218.93 487.22 216.78 499.92 213.28 512.62 208.77 525.32 203.64 538.02 198.37 550.72 193.42 563.42 189.25 576.12 186.23 588.82 184.63 602.37 191.36 591.56 210.07 580.7 222.03 571.98 233.98 566.48 245.94 564.88 257.9 567.37 269.85 573.66 281.81 582.95 293.77 594.11 305.72 605.74 317.68 616.42 329.64 624.82 341.59 629.9 353.55 631.03 365.51 628.08 377.46 621.4 389.42 611.83 401.38 600.55 413.33 588.95 425.29 578.47 437.25 570.4 449.2 565.75 461.16 565.09 473.12 568.5 485.08 575.56 497.03 585.39 508.99 596.78 520.95 608.33 532.9 618.59 544.86 621.9 561.37 604.47 565.96 591.44 568.9 578.41 574.47 565.38 582.17 552.36 591.3 539.33 601.03 526.3 610.49 513.27 618.82 500.24 625.27 487.22 629.25 474.19 630.4 461.16 628.63 448.13 624.08 435.1 617.18 422.08 608.54 409.05 598.95 396.02 589.27 382.99 580.38 369.97 573.09 356.94 568.04 343.91 565.7 330.88 566.29 317.85 569.74 304.83 575.74 291.8 583.76 278.77 593.06 265.74 602.81 252.72 612.12 239.69 620.16 219.39 621.52 209.36 604.02 205.69 591.19 201.56 578.36 197.49 565.54 193.97 552.71 191.44 539.88 190.22 527.05 190.46 514.22 192.12 501.39 195.01 488.56 198.76 475.74 202.91 462.91 206.95 450.08 210.37 437.25 212.76 424.42 213.82 411.59 213.41 398.77 211.59 385.94 208.59 373.11 204.77 360.28 200.6 347.45 196.61 334.62 193.29 321.79 191.04 308.97 190.15 296.14 190.72 283.31 192.69 270.48 195.81 257.65 199.69 244.82 203.86 232 207.8 219.17" stroke-dasharray="9 4" transform="rotate(32.32, 400, 400)" opacity="0.15"></path><path d="M215.44 228.93Q227.25 225.94 239.06 221.9 250.87 217.15 262.68 212.06 274.49 207.04 286.3 202.51 298.11 198.82 309.92 196.28 321.73 195.09 333.54 195.34 345.36 197.01 357.17 199.98 368.98 204 380.79 208.74 392.6 213.83 404.41 218.85 416.22 223.39 428.03 227.1 439.84 229.67 451.65 230.89 463.46 230.67 475.27 229.02 487.08 226.08 498.9 222.08 510.71 217.35 522.52 212.27 534.33 207.24 546.14 202.68 557.95 198.96 569.76 196.36 582.07 200.83 572.24 217.81 563.55 229.07 557.44 240.32 554.6 251.58 555.34 262.84 559.58 274.09 566.84 285.35 576.33 296.6 587 307.86 597.67 319.12 607.16 330.37 614.42 341.63 618.65 352.89 619.39 364.14 616.54 375.4 610.43 386.65 601.74 397.91 591.41 409.17 580.59 420.42 570.49 431.68 562.2 442.94 556.66 454.19 554.47 465.45 555.87 476.71 560.71 487.96 568.45 499.22 578.24 510.47 589 521.73 599.54 532.99 605.95 549.7 590.97 557.39 578.74 562.01 566.5 568.64 554.26 576.76 542.03 585.7 529.79 594.75 517.55 603.17 505.32 610.29 493.08 615.52 480.84 618.46 468.61 618.85 456.37 616.67 444.13 612.1 431.9 605.5 419.66 597.41 407.42 588.48 395.19 579.42 382.95 570.98 370.71 563.83 358.48 558.55 346.24 555.57 334 555.12 321.77 557.25 309.53 561.77 297.3 568.33 285.06 576.4 272.82 585.33 260.59 594.38 248.35 602.84 228.7 606.65 217.79 591.2 213.76 579.12 209.65 567.05 205.9 554.97 202.94 542.9 201.09 530.82 200.55 518.74 201.39 506.67 203.51 494.59 206.68 482.52 210.55 470.44 214.68 458.37 218.63 446.29 221.96 434.21 224.29 422.14 225.38 410.06 225.1 397.99 223.48 385.91 220.71 373.84 217.08 361.76 213 349.68 208.92 337.61 205.29 325.53 202.51 313.46 200.89 301.38 200.61 289.31 201.69 277.23 204.03 265.15 207.35 253.08 211.3 241 215.44 228.93" stroke-dasharray="3 7" transform="rotate(36.36, 400, 400)" opacity="0.59"></path><path d="M222.48 237.45Q233.41 233.64 244.34 229.14 255.27 224.27 266.2 219.38 277.13 214.83 288.06 210.92 298.99 207.96 309.92 206.14 320.86 205.6 331.79 206.38 342.72 208.41 353.65 211.56 364.58 215.6 375.51 220.24 386.44 225.15 397.37 229.98 408.3 234.38 419.23 238.03 430.17 240.68 441.1 242.14 452.03 242.3 462.96 241.15 473.89 238.77 484.82 235.33 495.75 231.09 506.68 226.33 517.61 221.41 528.55 216.67 539.48 212.46 550.41 209.07 561.99 211.5 554.32 226.85 548.12 237.43 544.65 248.02 544.26 258.61 546.97 269.2 552.52 279.79 560.38 290.38 569.76 300.97 579.76 311.56 589.39 322.15 597.7 332.74 603.89 343.33 607.35 353.91 607.73 364.5 605.01 375.09 599.44 385.68 591.58 396.27 582.19 406.86 572.19 417.45 562.57 428.04 554.26 438.63 548.08 449.22 544.64 459.81 544.26 470.39 547 480.98 552.58 491.57 560.45 502.16 569.84 512.75 579.84 523.34 587.91 540.16 574.96 550.37 563.55 556.19 552.15 563.42 540.75 571.56 529.34 580.01 517.94 588.17 506.54 595.47 495.14 601.37 483.73 605.45 472.33 607.43 460.93 607.16 449.53 604.66 438.12 600.11 426.72 593.83 415.32 586.27 403.92 577.99 392.51 569.55 381.11 561.58 369.71 554.64 358.31 549.23 346.9 545.74 335.5 544.4 324.1 545.33 312.69 548.46 301.29 553.55 289.89 560.25 278.49 568.07 267.08 576.47 255.68 584.82 236.88 590.17 225.56 576.49 221.49 565.19 217.65 553.89 214.44 542.59 212.17 531.29 211.05 519.98 211.2 508.68 212.61 497.38 215.13 486.08 218.52 474.78 222.44 463.48 226.52 452.17 230.35 440.87 233.56 429.57 235.83 418.27 236.94 406.97 236.79 395.67 235.38 384.37 232.85 373.06 229.46 361.76 225.53 350.46 221.45 339.16 217.62 327.86 214.42 316.56 212.15 305.25 211.04 293.95 211.21 282.65 212.62 271.35 215.15 260.05 218.55 248.75 222.48 237.45" stroke-dasharray="4 3" transform="rotate(40.400000000000006, 400, 400)" opacity="0.64"></path><path d="M229.3 244.85Q239.38 240.55 249.46 235.91 259.54 231.2 269.62 226.73 279.7 222.79 289.78 219.61 299.87 217.4 309.95 216.3 320.03 216.37 330.11 217.62 340.19 219.96 350.27 223.24 360.35 227.27 370.43 231.78 380.51 236.49 390.59 241.11 400.67 245.35 410.75 248.93 420.84 251.64 430.92 253.3 441 253.8 451.08 253.13 461.16 251.31 471.24 248.47 481.32 244.77 491.4 240.47 501.48 235.81 511.56 231.11 521.64 226.65 531.73 222.72 538.82 235.33 533.65 257.17 535.35 267.12 539.61 277.07 546.06 287.02 554.14 296.97 563.15 306.92 572.33 316.87 580.87 326.82 588.04 336.77 593.23 346.72 595.98 356.67 596.06 366.62 593.47 376.57 588.42 386.52 581.35 396.47 572.87 406.42 563.72 416.37 554.67 426.32 546.51 436.27 539.95 446.22 535.54 456.17 533.68 466.12 534.51 476.07 537.97 486.02 543.76 495.97 551.38 505.92 560.17 515.87 568.52 532.61 557.12 544.64 546.57 551.16 536.03 558.55 525.48 566.35 514.93 574.06 504.39 581.2 493.84 587.33 483.3 592.04 472.75 595.06 462.2 596.18 451.66 595.34 441.11 592.59 430.57 588.1 420.02 582.16 409.47 575.14 398.93 567.48 388.38 559.67 377.84 552.19 367.29 545.51 356.74 540.06 346.2 536.18 335.65 534.12 325.11 534 314.56 535.82 304.01 539.49 293.47 544.76 282.92 551.3 272.38 558.7 261.83 566.5 244.09 572.52 232.9 560.31 229.08 549.79 225.77 539.28 223.25 528.76 221.75 518.24 221.39 507.73 222.2 497.21 224.11 486.7 226.96 476.18 230.51 465.67 234.44 455.15 238.42 444.64 242.1 434.12 245.17 423.61 247.37 413.09 248.5 402.58 248.46 392.06 247.26 381.55 245.01 371.03 241.89 360.52 238.18 350 234.2 339.49 230.28 328.97 226.77 318.46 223.97 307.94 222.11 297.43 221.37 286.91 221.81 276.4 223.38 265.88 225.95 255.37 229.3 244.85" stroke-dasharray="11 6" transform="rotate(44.44, 400, 400)" opacity="0.88"></path><path d="M236.35 251.37Q245.62 246.93 254.9 242.43 264.17 238.14 273.44 234.27 282.72 231.05 291.99 228.65 301.27 227.2 310.54 226.78 319.82 227.41 329.09 229.06 338.36 231.65 347.64 235.02 356.91 238.99 366.19 243.35 375.46 247.85 384.73 252.25 394.01 256.31 403.28 259.8 412.56 262.53 421.83 264.36 431.1 265.18 440.38 264.95 449.65 263.67 458.93 261.43 468.2 258.34 477.48 254.58 486.75 250.34 496.02 245.86 505.3 241.4 514.57 237.18 524.51 247.5 524.37 267.73 527.75 277.07 533.1 286.4 540.02 295.73 547.99 305.06 556.42 314.39 564.66 323.73 572.1 333.06 578.18 342.39 582.44 351.72 584.56 361.06 584.39 370.39 581.93 379.72 577.38 389.05 571.06 398.39 563.47 407.72 555.16 417.05 546.76 426.38 538.91 435.71 532.19 445.05 527.11 454.38 524.05 463.71 523.24 473.04 524.75 482.38 528.44 491.71 534.06 501.04 541.18 510.37 548.64 526.81 538.32 539.88 528.64 546.63 518.95 553.79 509.26 560.95 499.57 567.73 489.89 573.76 480.2 578.71 470.51 582.29 460.83 584.33 451.14 584.7 441.45 583.39 431.76 580.47 422.08 576.09 412.39 570.5 402.7 564.01 393.01 556.96 383.33 549.76 373.64 542.78 363.95 536.42 354.27 531.03 344.58 526.89 334.89 524.25 325.2 523.23 315.52 523.9 305.83 526.22 296.14 530.07 286.46 535.23 276.77 541.42 267.08 548.29 250.6 554.18 240.07 543.14 236.78 533.42 234.19 523.69 232.48 513.96 231.78 504.24 232.16 494.51 233.57 484.79 235.92 475.06 239.02 465.34 242.65 455.61 246.53 445.88 250.37 436.16 253.88 426.43 256.8 416.71 258.9 406.98 260.04 397.25 260.12 387.53 259.14 377.8 257.17 368.08 254.36 358.35 250.92 348.63 247.11 338.9 243.22 329.17 239.54 319.45 236.34 309.72 233.87 300 232.31 290.27 231.77 280.54 232.31 270.82 233.87 261.09 236.35 251.37" stroke-dasharray="7 8" transform="rotate(48.48, 400, 400)" opacity="0.69"></path><path d="M244.07 257.29Q252.59 253.03 261.11 248.97 269.63 245.28 278.15 242.15 295.19 238.56 312.22 237.6 320.74 238.73 329.26 240.72 337.78 243.49 346.3 246.89 354.82 250.77 363.33 254.94 371.85 259.22 380.37 263.38 388.89 267.25 397.41 270.63 414.44 274.89 431.48 276.59 440 275.83 448.52 274.19 457.04 271.73 465.56 268.57 474.07 264.87 482.59 260.79 491.11 256.53 499.63 252.3 512.38 260.86 516.65 279.59 521.23 288.32 527.22 297.05 534.24 305.78 541.82 314.5 549.47 323.23 556.71 331.96 563.06 340.69 568.1 349.41 572.11 366.87 570.4 384.32 566.31 393.05 560.71 401.78 553.96 410.51 546.5 419.23 538.81 427.96 531.4 436.69 524.73 445.42 519.25 454.14 515.32 462.87 513.17 471.6 512.96 480.32 514.7 489.05 518.27 497.78 523.45 506.51 529.12 522.38 519.5 535.73 510.65 542.28 501.8 548.86 492.96 555.16 484.11 560.89 475.27 565.77 466.42 569.58 457.58 572.12 448.73 573.29 439.89 573.02 431.04 571.33 422.2 568.3 413.35 564.07 404.51 558.85 395.66 552.87 386.82 546.43 377.97 539.82 369.13 533.37 360.28 527.37 351.44 522.11 342.59 517.84 333.75 514.76 324.9 513.01 316.06 512.69 307.21 513.8 298.37 516.29 289.52 520.04 280.68 524.89 271.83 530.58 256.78 535.69 247.4 525.56 244.86 516.62 243.11 507.68 242.26 498.73 242.36 489.79 243.41 480.85 245.34 471.91 248.03 462.96 251.3 454.02 254.94 445.08 258.71 436.14 262.38 427.19 265.69 418.25 268.44 409.31 270.44 400.37 271.58 391.42 271.76 382.48 270.99 373.54 269.32 364.6 266.84 355.65 263.73 346.71 260.17 337.77 256.42 328.83 252.7 319.88 249.25 310.94 246.32 302 244.07 293.06 242.66 284.11 242.18 275.17 242.66 266.23 244.07 257.29" stroke-dasharray="2 5" transform="rotate(52.52, 400, 400)" opacity="0.78"></path><path d="M252.89 262.97Q268.52 255.77 284.15 250.52 299.78 248.07 315.41 248.8 331.04 252.59 346.67 258.85 362.3 266.57 377.93 274.52 393.56 281.42 409.19 286.18 424.82 288.03 440.45 286.69 456.08 282.35 471.71 275.72 487.34 267.86 502.97 260.02 503.51 276.27 510.26 292.52 521.75 308.78 535.48 325.03 548.45 341.29 557.83 357.54 561.57 373.79 558.86 390.05 550.29 406.3 537.73 422.55 523.92 438.81 511.87 455.06 504.21 471.32 502.61 487.57 507.43 503.82 517.6 520.08 501.53 531.79 485.46 543.54 469.39 553.44 453.33 559.92 437.26 561.93 421.19 559.16 405.12 552.05 389.05 541.74 372.98 529.87 356.91 518.34 340.85 508.99 324.78 503.32 308.71 502.23 292.64 505.89 276.57 513.73 260.5 524.49 255.21 508.14 252.7 491.8 253.53 475.45 257.52 459.11 263.79 442.76 270.98 426.42 277.52 410.07 281.98 393.73 283.39 377.38 281.44 361.04 276.56 344.69 269.81 328.35 262.66 312 256.68 295.66 253.17 279.31 252.89 262.97" stroke-dasharray="7 7" transform="rotate(56.56, 400, 400)" opacity="0.42"></path><path d="M263.11 268.8Q277.43 263.09 291.74 259.52 306.06 258.57 320.38 260.37 334.7 264.67 349.01 270.9 363.33 278.23 377.65 285.65 391.97 292.18 406.29 296.94 420.6 299.28 434.92 298.89 449.24 295.83 463.56 290.5 477.87 283.62 492.19 276.12 496.26 291.17 504.88 306.21 516.46 321.26 528.88 336.3 539.84 351.35 547.34 366.39 550 381.44 547.32 396.48 539.8 411.53 528.83 426.57 516.41 441.62 504.84 456.66 496.24 471.71 492.19 486.75 493.43 501.8 499.74 516.85 485.22 527.67 470.69 537.6 456.16 545.29 441.63 549.71 427.1 550.27 412.57 546.89 398.04 540.03 383.51 530.6 368.98 519.89 354.45 509.32 339.92 500.32 325.39 494.1 310.86 491.51 296.33 492.88 281.8 498.03 267.27 506.28 263.79 491.43 263.11 476.59 265.34 461.75 270.09 446.91 276.47 432.06 283.32 417.22 289.37 402.38 293.51 387.54 294.99 372.69 293.53 357.85 289.39 343.01 283.34 328.17 276.5 313.32 270.11 298.48 265.35 283.64 263.11 268.8" stroke-dasharray="9 2" transform="rotate(60.599999999999994, 400, 400)" opacity="0.21"></path><path d="M274.93 275.17Q288.01 271.16 301.09 269.25 314.17 269.65 327.24 272.32 340.32 276.95 353.4 283.05 366.48 289.91 379.56 296.79 392.64 302.9 405.72 307.58 418.8 310.3 431.87 310.76 444.95 308.91 458.03 304.94 471.11 299.31 484.19 292.65 490.71 306.46 500.16 320.28 511.12 334.09 521.9 347.91 530.87 361.72 536.66 375.54 538.38 389.35 535.79 403.17 529.26 416.99 519.79 430.8 508.84 444.62 498.06 458.43 489.1 472.25 483.32 486.06 481.61 499.88 484.22 513.69 471.14 523 458.06 530.85 444.98 536.38 431.9 538.97 418.82 538.33 405.74 534.54 392.66 528.01 379.58 519.47 366.5 509.88 353.42 500.3 340.34 491.8 327.27 485.33 314.19 481.61 301.11 481.05 280.72 479.82 274.42 462.54 277.79 449.16 283.03 435.77 289.32 422.39 295.72 409 301.24 395.62 305.05 382.24 306.57 368.85 305.56 355.47 302.18 342.09 296.95 328.7 290.65 315.32 284.26 301.93 278.73 288.55 274.93 275.17" stroke-dasharray="7 2" transform="rotate(64.64, 400, 400)" opacity="0.73"></path><path d="M288.38 282.44Q300.27 280.18 312.15 279.8 324.04 281.33 335.93 284.64 347.81 289.43 359.7 295.27 371.58 301.62 383.47 307.92 395.36 313.59 407.24 318.12 419.13 321.11 431.02 322.27 442.9 321.51 454.79 318.9 466.68 314.67 478.56 309.2 486.37 321.75 495.73 334.31 505.5 346.86 514.46 359.41 521.51 371.97 525.78 384.52 526.73 397.08 524.25 409.63 518.64 422.18 510.61 434.74 501.14 447.29 491.4 459.85 482.6 472.4 475.83 484.95 471.93 497.51 471.37 510.06 459.66 517.44 447.94 523.14 436.23 526.67 424.52 527.69 412.8 526.12 401.09 522.1 389.37 515.98 377.66 508.33 365.94 499.84 354.23 491.27 342.51 483.4 330.8 476.94 319.08 472.47 307.37 470.4 289.97 466.46 286.69 450.03 290.87 438.06 296.31 426.09 302.32 414.12 308.17 402.15 313.13 390.18 316.59 378.21 318.12 366.24 317.53 354.27 314.9 342.3 310.55 330.32 305.01 318.35 298.98 306.38 293.2 294.41 288.38 282.44" stroke-dasharray="5 7" transform="rotate(68.68, 400, 400)" opacity="0.24"></path><path d="M303.31 290.94Q314.02 290.3 324.73 291.22 335.45 293.62 346.16 297.33 356.87 302.1 367.58 307.57 378.29 313.36 389 319.05 399.71 324.24 410.42 328.55 421.13 331.68 431.85 333.4 442.56 333.58 453.27 332.22 463.98 329.42 474.69 325.37 482.69 336.62 491.2 347.88 499.4 359.13 506.49 370.38 511.76 381.64 514.71 392.89 515.03 404.15 512.71 415.4 507.97 426.65 501.27 437.91 493.27 449.16 484.75 460.42 476.55 471.67 469.48 482.93 464.21 494.18 461.28 505.43 450.86 510.72 440.44 514.38 430.02 516.15 419.6 515.9 409.18 513.66 398.76 509.59 388.34 503.97 377.92 497.2 367.5 489.78 357.08 482.23 346.66 475.09 336.24 468.87 325.82 464.03 315.4 460.9 300.73 454.82 299.91 439.34 304.53 428.74 309.88 418.14 315.44 407.54 320.66 396.94 325.03 386.34 328.13 375.74 329.64 365.14 329.43 354.54 327.5 343.94 324.06 333.34 319.44 322.74 314.09 312.14 308.53 301.54 303.31 290.94" stroke-dasharray="8 11" transform="rotate(72.72, 400, 400)" opacity="0.54"></path><path d="M319.42 300.89Q328.94 301.62 338.46 303.52 347.99 306.49 357.51 310.37 367.04 314.94 376.56 319.95 386.08 325.13 395.61 330.19 405.13 334.85 414.66 338.87 424.18 342.02 433.71 344.12 443.23 345.06 452.75 344.79 462.28 343.33 471.8 340.75 479.09 350.66 486.22 360.58 492.66 370.49 497.92 380.41 501.61 390.32 503.45 400.24 503.3 410.15 501.18 420.07 497.23 429.98 491.77 439.9 485.19 449.81 478 459.73 470.74 469.64 463.94 479.56 458.12 489.47 453.73 499.39 444.55 502.64 435.38 504.48 426.21 504.82 417.04 503.63 407.86 500.98 398.69 497.02 389.52 491.95 380.34 486.07 371.17 479.68 362 473.15 352.82 466.83 343.65 461.07 334.48 456.18 325.3 452.44 313.06 444.94 314 430.59 318.68 421.32 323.69 412.06 328.65 402.79 333.18 393.53 336.94 384.27 339.66 375 341.13 365.74 341.23 356.47 339.96 347.21 337.42 337.95 333.79 328.68 329.36 319.42 324.44 310.15 319.42 300.89" stroke-dasharray="9 5" transform="rotate(76.76, 400, 400)" opacity="0.81"></path><path d="M336.23 312.43Q352.83 316.69 369.44 323.72 386.04 332.39 402.65 341.32 419.25 349.08 435.85 354.43 452.46 356.51 469.06 354.99 480.48 372.07 488.73 389.15 492.02 406.22 489.64 423.3 482.1 440.38 471.04 457.45 458.88 474.53 448.28 491.61 432.38 493.46 416.49 490.92 400.59 484.39 384.69 474.93 368.8 464.04 352.9 453.46 337 444.89 321.11 439.69 328.82 423.78 337.67 407.87 345.71 391.96 351.2 376.06 352.93 360.15 350.54 344.24 344.53 328.33 336.23 312.43" stroke-dasharray="4 8" transform="rotate(80.80000000000001, 400, 400)" opacity="0.45"></path><path d="M353.18 325.57Q367.24 330.67 381.3 337.36 395.36 344.9 409.42 352.46 423.48 359.18 437.54 364.32 451.6 367.31 465.66 367.81 473.7 382.08 478.88 396.34 480.43 410.6 478.1 424.87 472.25 439.13 463.77 453.39 453.96 467.65 444.3 481.92 430.86 481.32 417.42 477.8 403.98 471.73 390.54 463.8 377.1 454.89 363.66 445.99 350.22 438.09 336.78 432.08 344.2 418.76 351.73 405.45 358.24 392.14 362.74 378.82 364.52 365.51 363.34 352.2 359.35 338.88 353.18 325.57" stroke-dasharray="6 9" transform="rotate(84.84, 400, 400)" opacity="0.53"></path><path d="M369.67 340.22Q381.07 345.35 392.47 351.24 403.88 357.47 415.28 363.59 426.68 369.17 438.08 373.81 449.48 377.17 460.88 379.02 465.7 390.43 468.39 401.84 468.69 413.24 466.57 424.65 462.23 436.06 456.12 447.46 448.81 458.87 441.03 470.28 430.1 468.17 419.18 464.33 408.25 459.03 397.32 452.66 386.39 445.67 375.46 438.56 364.53 431.84 353.6 425.99 359.9 415.27 365.81 404.55 370.76 393.82 374.27 383.1 375.99 372.38 375.75 361.66 373.57 350.94 369.67 340.22" stroke-dasharray="7 7" transform="rotate(88.88, 400, 400)" opacity="0.40"></path><path d="M385.09 356.16Q402.36 365.31 419.63 374.72 436.91 382.91 454.18 388.55 457.25 405.61 455.03 422.67 448 439.73 437.7 456.79 421.03 450.57 404.35 441.53 387.68 431.13 371.01 421.03 379.81 404.81 385.81 388.59 387.71 372.38 385.09 356.16" stroke-dasharray="10 4" transform="rotate(92.92, 400, 400)" opacity="0.26"></path><path d="M398.91 373.07Q410.49 379.52 422.07 385.86 433.65 391.64 445.23 396.44 445.51 407.75 443.49 419.07 430.81 433.48 410.96 430.4 399.68 423.62 388.39 416.73 393.63 405.82 397.35 394.9 399.16 383.98 398.91 373.07" stroke-dasharray="10 4" transform="rotate(96.96, 400, 400)" opacity="0.45"></path></g></svg>